{
  "accessors": [
    {
      "bufferView": 2,
      "componentType": 5126,
      "count": 192,
      "max": [
        1.0,
        0.2199999988079071,
        1.0
      ],
      "min": [
        -1.0,
        -0.2199999988079071,
        -1.0
      ],
      "type": "VEC3"
    },
    {
      "bufferView": 2,
      "byteOffset": 2304,
      "componentType": 5126,
      "count": 192,
      "max": [
        0.9951848983764648,
        1.0,
        0.9951848387718201
      ],
      "min": [
        -0.9951847791671753,
        -1.0,
        -0.9951847791671753
      ],
      "type": "VEC3"
    },
    {
      "bufferView": 1,
      "componentType": 5126,
      "count": 192,
      "max": [
        0.5835213661193848,
        0.9998998045921326
      ],
      "min": [
        0.00010021986236097291,
        0.00010021986236097291
      ],
      "type": "VEC2"
    },
    {
      "bufferView": 0,
      "componentType": 5125,
      "count": 372,
      "type": "SCALAR"
    },
    {
      "bufferView": 2,
      "byteOffset": 4608,
      "componentType": 5126,
      "count": 508,
      "max": [
        1.0,
        0.14499999582767487,
        1.0
      ],
      "min": [
        -1.0,
        -0.14499999582767487,
        -1.0
      ],
      "type": "VEC3"
    },
    {
      "bufferView": 2,
      "byteOffset": 10704,
      "componentType": 5126,
      "count": 508,
      "max": [
        0.9951848387718201,
        1.0,
        0.9951848387718201
      ],
      "min": [
        -0.9951848387718201,
        -1.0,
        -0.9951848387718201
      ],
      "type": "VEC3"
    },
    {
      "bufferView": 1,
      "byteOffset": 1536,
      "componentType": 5126,
      "count": 508,
      "max": [
        0.999900221824646,
        0.9961381554603577
      ],
      "min": [
        9.97917668428272e-05,
        9.97917668428272e-05
      ],
      "type": "VEC2"
    },
    {
      "bufferView": 0,
      "byteOffset": 1488,
      "componentType": 5125,
      "count": 768,
      "type": "SCALAR"
    },
    {
      "bufferView": 2,
      "byteOffset": 16800,
      "componentType": 5126,
      "count": 4525,
      "max": [
        2.0646755695343018,
        0.08500005304813385,
        0.9935951828956604
      ],
      "min": [
        -0.9935952425003052,
        -0.08500006794929504,
        -1.5581176280975342
      ],
      "type": "VEC3"
    },
    {
      "bufferView": 2,
      "byteOffset": 71100,
      "componentType": 5126,
      "count": 4525,
      "max": [
        0.9999704360961914,
        1.0,
        0.9999125599861145
      ],
      "min": [
        -0.9996978044509888,
        -1.0,
        -0.9999763369560242
      ],
      "type": "VEC3"
    },
    {
      "bufferView": 1,
      "byteOffset": 5600,
      "componentType": 5126,
      "count": 4525,
      "max": [
        0.0,
        0.0
      ],
      "min": [
        0.0,
        0.0
      ],
      "type": "VEC2"
    },
    {
      "bufferView": 0,
      "byteOffset": 4560,
      "componentType": 5125,
      "count": 10272,
      "type": "SCALAR"
    }
  ],
  "asset": {
    "extras": {
      "author": "asimazizov5 (https://sketchfab.com/asimazizov5)",
      "license": "CC-BY-4.0 (http://creativecommons.org/licenses/by/4.0/)",
      "source": "https://sketchfab.com/3d-models/blender-logo-60facedcd4a04f18adff4225f017a3c5",
      "title": "Blender Logo"
    },
    "generator": "Sketchfab-12.68.0",
    "version": "2.0"
  },
  "bufferViews": [
    {
      "buffer": 0,
      "byteLength": 45648,
      "name": "floatBufferViews",
      "target": 34963
    },
    {
      "buffer": 0,
      "byteLength": 41800,
      "byteOffset": 45648,
      "byteStride": 8,
      "name": "floatBufferViews",
      "target": 34962
    },
    {
      "buffer": 0,
      "byteLength": 125400,
      "byteOffset": 87448,
      "byteStride": 12,
      "name": "floatBufferViews",
      "target": 34962
    }
  ],
  "buffers": [
    {
      "byteLength": 212848,
      "uri": "scene.bin"
    }
  ],
  "materials": [
    {
      "doubleSided": true,
      "name": "Material.001",
      "pbrMetallicRoughness": {
        "baseColorFactor": [
          0.0193824,
          0.0953075,
          0.242281,
          1.0
        ],
        "metallicFactor": 0.0,
        "roughnessFactor": 0.5
      }
    },
    {
      "doubleSided": true,
      "name": "Material.002",
      "pbrMetallicRoughness": {
        "metallicFactor": 0.0,
        "roughnessFactor": 0.5
      }
    },
    {
      "doubleSided": true,
      "name": "Material.003",
      "pbrMetallicRoughness": {
        "baseColorFactor": [
          0.822786,
          0.181164,
          0.0,
          1.0
        ],
        "metallicFactor": 0.0,
        "roughnessFactor": 0.5
      }
    }
  ],
  "meshes": [
    {
      "name": "Object_0",
      "primitives": [
        {
          "attributes": {
            "NORMAL": 1,
            "POSITION": 0,
            "TEXCOORD_0": 2
          },
          "indices": 3,
          "material": 0,
          "mode": 4
        }
      ]
    },
    {
      "name": "Object_1",
      "primitives": [
        {
          "attributes": {
            "NORMAL": 5,
            "POSITION": 4,
            "TEXCOORD_0": 6
          },
          "indices": 7,
          "material": 1,
          "mode": 4
        }
      ]
    },
    {
      "name": "Object_2",
      "primitives": [
        {
          "attributes": {
            "NORMAL": 9,
            "POSITION": 8,
            "TEXCOORD_0": 10
          },
          "indices": 11,
          "material": 2,
          "mode": 4
        }
      ]
    }
  ],
  "nodes": [
    {
      "children": [
        1
      ],
      "matrix": [
        1.0,
        0.0,
        0.0,
        0.0,
        0.0,
        2.220446049250313e-16,
        -1.0,
        0.0,
        0.0,
        1.0,
        2.220446049250313e-16,
        0.0,
        0.0,
        0.0,
        0.0,
        1.0
      ],
      "name": "Sketchfab_model"
    },
    {
      "children": [
        2
      ],
      "name": "root"
    },
    {
      "children": [
        3,
        5,
        7
      ],
      "matrix": [
        1.0,
        0.0,
        0.0,
        0.0,
        0.0,
        2.220446049250313e-16,
        1.0,
        0.0,
        0.0,
        -1.0,
        2.220446049250313e-16,
        0.0,
        0.0,
        0.0,
        0.0,
        1.0
      ],
      "name": "GLTF_SceneRootNode"
    },
    {
      "children": [
        4
      ],
      "matrix": [
        0.14472611767084512,
        0.018493120228788063,
        8.831303140168107e-05,
        0.0,
        -0.00017071715038592376,
        0.0006392775536434899,
        0.14590138659699986,
        0.0,
        0.018492543109115352,
        -0.14472473271516598,
        0.000655759822277136,
        0.0,
        -0.18173164129257202,
        -0.09946523606777191,
        0.0,
        1.0
      ],
      "name": "Circle_2"
    },
    {
      "mesh": 0,
      "name": "Object_4"
    },
    {
      "children": [
        6
      ],
      "matrix": [
        0.22074352916914386,
        0.02820663395349493,
        0.0001346994622461268,
        0.0,
        -0.0002603863550848211,
        0.0009750581690502182,
        0.2225361082464896,
        0.0,
        0.028205753701641585,
        -0.2207414167653202,
        0.0010001977513554642,
        0.0,
        -0.18173164129257202,
        -0.09946523606777191,
        0.0,
        1.0
      ],
      "name": "Circle.001_3"
    },
    {
      "mesh": 1,
      "name": "Object_6"
    },
    {
      "children": [
        8
      ],
      "matrix": [
        0.3753352099001597,
        0.04796037698300904,
        0.00022903253891917797,
        0.0,
        -0.0004427408024541094,
        0.0016579134343045823,
        0.37838317260507165,
        0.0,
        0.04795888027089529,
        -0.37533161813221283,
        0.001700658834076241,
        0.0,
        -0.18173164129257202,
        -0.09946523606777191,
        0.0,
        1.0
      ],
      "name": "Circle.002_4"
    },
    {
      "mesh": 2,
      "name": "Object_8"
    }
  ],
  "scene": 0,
  "scenes": [
    {
      "name": "Sketchfab_Scene",
      "nodes": [
        0
      ]
    }
  ]
}
