{
  "accessors": [
    {
      "bufferView": 1,
      "componentType": 5126,
      "count": 824,
      "max": [
        1.492550015449524,
        1.492550015449524,
        5.742770195007324
      ],
      "min": [
        -1.492550015449524,
        -1.492550015449524,
        0.0
      ],
      "type": "VEC3"
    },
    {
      "bufferView": 1,
      "byteOffset": 9888,
      "componentType": 5126,
      "count": 824,
      "max": [
        0.9975398778915405,
        0.9975398778915405,
        0.975908637046814
      ],
      "min": [
        -0.9975398778915405,
        -0.9975398778915405,
        -1.0
      ],
      "type": "VEC3"
    },
    {
      "bufferView": 0,
      "componentType": 5125,
      "count": 1170,
      "type": "SCALAR"
    }
  ],
  "asset": {
    "extras": {
      "author": "otyx (https://sketchfab.com/otyx)",
      "license": "CC-BY-4.0 (http://creativecommons.org/licenses/by/4.0/)",
      "source": "https://sketchfab.com/3d-models/queen-lp-b31ce055fc364de4b5a22d51a8c6b5a7",
      "title": "Queen LP"
    },
    "generator": "Sketchfab-12.68.0",
    "version": "2.0"
  },
  "bufferViews": [
    {
      "buffer": 0,
      "byteLength": 4680,
      "name": "floatBufferViews",
      "target": 34963
    },
    {
      "buffer": 0,
      "byteLength": 19776,
      "byteOffset": 4680,
      "byteStride": 12,
      "name": "floatBufferViews",
      "target": 34962
    }
  ],
  "buffers": [
    {
      "byteLength": 24456,
      "uri": "scene.bin"
    }
  ],
  "materials": [
    {
      "doubleSided": true,
      "name": "Root",
      "pbrMetallicRoughness": {
        "metallicFactor": 0.0,
        "roughnessFactor": 0.6
      }
    }
  ],
  "meshes": [
    {
      "name": "Bishop_0",
      "primitives": [
        {
          "attributes": {
            "NORMAL": 1,
            "POSITION": 0
          },
          "indices": 2,
          "material": 0,
          "mode": 4
        }
      ]
    }
  ],
  "nodes": [
    {
      "children": [
        1
      ],
      "matrix": [
        1.0,
        0.0,
        0.0,
        0.0,
        0.0,
        2.220446049250313e-16,
        -1.0,
        0.0,
        0.0,
        1.0,
        2.220446049250313e-16,
        0.0,
        0.0,
        0.0,
        0.0,
        1.0
      ],
      "name": "Sketchfab_model"
    },
    {
      "children": [
        2,
        4
      ],
      "name": "Root"
    },
    {
      "children": [
        3
      ],
      "matrix": [
        1.0,
        0.0,
        0.0,
        0.0,
        0.0,
        0.8660300000000001,
        0.5,
        0.0,
        0.0,
        -0.5,
        0.8660300000000001,
        0.0,
        3.21941,
        2.65334,
        11.41914,
        1.0
      ],
      "name": "Lamp"
    },
    {
      "name": "Lamp"
    },
    {
      "children": [
        5
      ],
      "matrix": [
        1.34,
        0.0,
        0.0,
        0.0,
        0.0,
        1.34,
        0.0,
        0.0,
        0.0,
        0.0,
        1.34,
        0.0,
        0.0,
        0.0,
        0.0,
        1.0
      ],
      "name": "Bishop"
    },
    {
      "mesh": 0,
      "name": "Bishop_0"
    }
  ],
  "scene": 0,
  "scenes": [
    {
      "name": "Sketchfab_Scene",
      "nodes": [
        0
      ]
    }
  ]
}
