{
  "accessors": [
    {
      "bufferView": 2,
      "componentType": 5126,
      "count": 1056,
      "max": [
        16.46993064880371,
        4.58135986328125,
        37.22407913208008
      ],
      "min": [
        -14.586270332336426,
        -5.735099792480469,
        0.00937000010162592
      ],
      "type": "VEC3"
    },
    {
      "bufferView": 2,
      "byteOffset": 12672,
      "componentType": 5126,
      "count": 1056,
      "max": [
        0.8922991752624512,
        0.9999240636825562,
        1.0
      ],
      "min": [
        -0.8922991752624512,
        -0.9999240636825562,
        -1.0
      ],
      "type": "VEC3"
    },
    {
      "bufferView": 1,
      "componentType": 5126,
      "count": 1056,
      "max": [
        0.9954800009727478,
        0.9956099987030029
      ],
      "min": [
        0.002259999979287386,
        0.002859999891370535
      ],
      "type": "VEC2"
    },
    {
      "bufferView": 0,
      "componentType": 5125,
      "count": 3024,
      "type": "SCALAR"
    }
  ],
  "asset": {
    "extras": {
      "author": "MysteryPancake (https://sketchfab.com/mysterypancake)",
      "license": "CC-BY-4.0 (http://creativecommons.org/licenses/by/4.0/)",
      "source": "https://sketchfab.com/3d-models/windows-7-logo-e5177e700d55422f95d4913cf6751431",
      "title": "Windows 7 Logo"
    },
    "generator": "Sketchfab-12.68.0",
    "version": "2.0"
  },
  "bufferViews": [
    {
      "buffer": 0,
      "byteLength": 12096,
      "name": "floatBufferViews",
      "target": 34963
    },
    {
      "buffer": 0,
      "byteLength": 8448,
      "byteOffset": 12096,
      "byteStride": 8,
      "name": "floatBufferViews",
      "target": 34962
    },
    {
      "buffer": 0,
      "byteLength": 25344,
      "byteOffset": 20544,
      "byteStride": 12,
      "name": "floatBufferViews",
      "target": 34962
    }
  ],
  "buffers": [
    {
      "byteLength": 45888,
      "uri": "scene.bin"
    }
  ],
  "extensionsRequired": [
    "KHR_materials_pbrSpecularGlossiness"
  ],
  "extensionsUsed": [
    "KHR_materials_pbrSpecularGlossiness"
  ],
  "images": [
    {
      "uri": "textures/windowslogo_diffuse.png"
    }
  ],
  "materials": [
    {
      "doubleSided": true,
      "extensions": {
        "KHR_materials_pbrSpecularGlossiness": {
          "diffuseFactor": [
            1.0,
            1.0,
            1.0,
            1.0
          ],
          "diffuseTexture": {
            "index": 0
          },
          "glossinessFactor": 0.5,
          "specularFactor": [
            0.1,
            0.1,
            0.1
          ]
        }
      },
      "name": "windowslogo"
    }
  ],
  "meshes": [
    {
      "name": "Windows 7_0",
      "primitives": [
        {
          "attributes": {
            "NORMAL": 1,
            "POSITION": 0,
            "TEXCOORD_0": 2
          },
          "indices": 3,
          "material": 0,
          "mode": 4
        }
      ]
    }
  ],
  "nodes": [
    {
      "children": [
        1
      ],
      "matrix": [
        0.03333333507180214,
        0.0,
        0.0,
        0.0,
        0.0,
        7.401487216851996e-18,
        -0.03333333507180214,
        0.0,
        0.0,
        0.03333333507180214,
        7.401487216851996e-18,
        0.0,
        0.0,
        0.0,
        0.0,
        1.0
      ],
      "name": "Sketchfab_model"
    },
    {
      "children": [
        2
      ],
      "name": "Root"
    },
    {
      "children": [
        3
      ],
      "matrix": [
        1.1095599999999999,
        0.0,
        0.0,
        0.0,
        0.0,
        1.0,
        0.0,
        0.0,
        0.0,
        0.0,
        1.0,
        0.0,
        0.0,
        0.0,
        0.0,
        1.0
      ],
      "name": "Windows 7"
    },
    {
      "mesh": 0,
      "name": "Windows 7_0"
    }
  ],
  "samplers": [
    {
      "magFilter": 9729,
      "minFilter": 9987,
      "wrapS": 10497,
      "wrapT": 10497
    }
  ],
  "scene": 0,
  "scenes": [
    {
      "name": "Sketchfab_Scene",
      "nodes": [
        0
      ]
    }
  ],
  "textures": [
    {
      "sampler": 0,
      "source": 0
    }
  ]
}
