{
  "accessors": [
    {
      "bufferView": 2,
      "componentType": 5126,
      "count": 710,
      "max": [
        -3.3379335403442383,
        2.7019524574279785,
        9.919557571411133
      ],
      "min": [
        -3.928256034851074,
        0.5692920684814453,
        9.24936294555664
      ],
      "type": "VEC3"
    },
    {
      "bufferView": 2,
      "byteOffset": 8520,
      "componentType": 5126,
      "count": 710,
      "max": [
        0.9592278003692627,
        1.0,
        0.9999789595603943
      ],
      "min": [
        -0.9815323948860168,
        -1.0,
        -0.9998838901519775
      ],
      "type": "VEC3"
    },
    {
      "bufferView": 1,
      "componentType": 5126,
      "count": 710,
      "max": [
        0.65625,
        1.0
      ],
      "min": [
        0.34375,
        1.4901161193847656e-08
      ],
      "type": "VEC2"
    },
    {
      "bufferView": 0,
      "componentType": 5125,
      "count": 1776,
      "type": "SCALAR"
    },
    {
      "bufferView": 2,
      "byteOffset": 17040,
      "componentType": 5126,
      "count": 142,
      "max": [
        -2.9757044315338135,
        3.6230931282043457,
        9.932004928588867
      ],
      "min": [
        -3.948566198348999,
        2.0425775051116943,
        8.929198265075684
      ],
      "type": "VEC3"
    },
    {
      "bufferView": 2,
      "byteOffset": 18744,
      "componentType": 5126,
      "count": 142,
      "max": [
        0.9986944794654846,
        0.983955442905426,
        0.995087742805481
      ],
      "min": [
        -0.9938740730285645,
        -0.9897378087043762,
        -0.9899918437004089
      ],
      "type": "VEC3"
    },
    {
      "bufferView": 1,
      "byteOffset": 5680,
      "componentType": 5126,
      "count": 142,
      "max": [
        0.875,
        1.0
      ],
      "min": [
        0.125,
        0.0
      ],
      "type": "VEC2"
    },
    {
      "bufferView": 0,
      "byteOffset": 7104,
      "componentType": 5125,
      "count": 456,
      "type": "SCALAR"
    }
  ],
  "asset": {
    "extras": {
      "author": "jemmy (https://sketchfab.com/0esnn)",
      "license": "CC-BY-4.0 (http://creativecommons.org/licenses/by/4.0/)",
      "source": "https://sketchfab.com/3d-models/tree-yellow-07-d8a540f412b94fa3ba1abd9111fa7452",
      "title": "Tree Yellow 07"
    },
    "generator": "Sketchfab-12.67.0",
    "version": "2.0"
  },
  "bufferViews": [
    {
      "buffer": 0,
      "byteLength": 8928,
      "name": "floatBufferViews",
      "target": 34963
    },
    {
      "buffer": 0,
      "byteLength": 6816,
      "byteOffset": 8928,
      "byteStride": 8,
      "name": "floatBufferViews",
      "target": 34962
    },
    {
      "buffer": 0,
      "byteLength": 20448,
      "byteOffset": 15744,
      "byteStride": 12,
      "name": "floatBufferViews",
      "target": 34962
    }
  ],
  "buffers": [
    {
      "byteLength": 36192,
      "uri": "scene.bin"
    }
  ],
  "materials": [
    {
      "doubleSided": true,
      "name": "birch_mat",
      "pbrMetallicRoughness": {
        "metallicFactor": 0.0,
        "roughnessFactor": 0.6
      }
    },
    {
      "doubleSided": true,
      "name": "aiStandardSurface7",
      "pbrMetallicRoughness": {
        "baseColorFactor": [
          0.938685728457888,
          0.4910208498478356,
          0.029556834437808818,
          1.0
        ],
        "metallicFactor": 0.0,
        "roughnessFactor": 0.6
      }
    }
  ],
  "meshes": [
    {
      "name": "tree_type02_01_geo_birch_mat_0",
      "primitives": [
        {
          "attributes": {
            "NORMAL": 1,
            "POSITION": 0,
            "TEXCOORD_0": 2
          },
          "indices": 3,
          "material": 0,
          "mode": 4
        }
      ]
    },
    {
      "name": "pCube5_aiStandardSurface7_0",
      "primitives": [
        {
          "attributes": {
            "NORMAL": 5,
            "POSITION": 4,
            "TEXCOORD_0": 6
          },
          "indices": 7,
          "material": 1,
          "mode": 4
        }
      ]
    }
  ],
  "nodes": [
    {
      "children": [
        1
      ],
      "matrix": [
        1.0,
        0.0,
        0.0,
        0.0,
        0.0,
        2.220446049250313e-16,
        -1.0,
        0.0,
        0.0,
        1.0,
        2.220446049250313e-16,
        0.0,
        0.0,
        0.0,
        0.0,
        1.0
      ],
      "name": "Sketchfab_model"
    },
    {
      "children": [
        2
      ],
      "matrix": [
        1.0,
        0.0,
        0.0,
        0.0,
        0.0,
        0.0,
        1.0,
        0.0,
        0.0,
        -1.0,
        0.0,
        0.0,
        0.0,
        0.0,
        0.0,
        1.0
      ],
      "name": "8f7a3b463fcf41ce97368062a24b9668.fbx"
    },
    {
      "children": [
        3
      ],
      "name": "RootNode"
    },
    {
      "children": [
        4
      ],
      "matrix": [
        0.009999999776482582,
        0.0,
        0.0,
        0.0,
        0.0,
        0.009999999776482582,
        0.0,
        0.0,
        0.0,
        0.0,
        0.009999999776482582,
        0.0,
        0.0,
        0.0,
        0.0,
        1.0
      ],
      "name": "mist_fantasy_scene"
    },
    {
      "children": [
        5
      ],
      "name": "trees_grp"
    },
    {
      "children": [
        6
      ],
      "name": "tree_type_02_grp"
    },
    {
      "children": [
        7
      ],
      "matrix": [
        1.268428087234497,
        0.0,
        0.0,
        0.0,
        0.0,
        1.268428087234497,
        0.0,
        0.0,
        0.0,
        0.0,
        1.268428087234497,
        0.0,
        12.278038024902344,
        -0.9461197853088379,
        -22.456459045410156,
        1.0
      ],
      "name": "tree_02_grp7"
    },
    {
      "children": [
        8,
        10
      ],
      "name": "tree_02_01_grp"
    },
    {
      "children": [
        9
      ],
      "name": "tree_type02_01_geo"
    },
    {
      "mesh": 0,
      "name": "tree_type02_01_geo_birch_mat_0"
    },
    {
      "children": [
        11
      ],
      "name": "pCube5"
    },
    {
      "mesh": 1,
      "name": "pCube5_aiStandardSurface7_0"
    }
  ],
  "scene": 0,
  "scenes": [
    {
      "name": "Sketchfab_Scene",
      "nodes": [
        0
      ]
    }
  ]
}
