{
  "accessors": [
    {
      "bufferView": 2,
      "componentType": 5126,
      "count": 1262,
      "max": [
        -2.0839293003082275,
        3.387881278991699,
        4.143458366394043
      ],
      "min": [
        -3.2725799083709717,
        0.2801370620727539,
        2.8286969661712646
      ],
      "type": "VEC3"
    },
    {
      "bufferView": 2,
      "byteOffset": 15144,
      "componentType": 5126,
      "count": 1262,
      "max": [
        1.0,
        1.0,
        1.0
      ],
      "min": [
        -1.0,
        -1.0,
        -1.0
      ],
      "type": "VEC3"
    },
    {
      "bufferView": 1,
      "componentType": 5126,
      "count": 1262,
      "max": [
        0.875,
        1.0
      ],
      "min": [
        0.125,
        -7.450580596923828e-08
      ],
      "type": "VEC2"
    },
    {
      "bufferView": 0,
      "componentType": 5125,
      "count": 4920,
      "type": "SCALAR"
    }
  ],
  "asset": {
    "extras": {
      "author": "Mohammed.Adnan (https://sketchfab.com/Mohammed.Adnan)",
      "license": "CC-BY-4.0 (http://creativecommons.org/licenses/by/4.0/)",
      "source": "https://sketchfab.com/3d-models/black-king-a0d684181bea4d4183d37011d9c43fe1",
      "title": "Black King"
    },
    "generator": "Sketchfab-12.68.0",
    "version": "2.0"
  },
  "bufferViews": [
    {
      "buffer": 0,
      "byteLength": 19680,
      "name": "floatBufferViews",
      "target": 34963
    },
    {
      "buffer": 0,
      "byteLength": 10096,
      "byteOffset": 19680,
      "byteStride": 8,
      "name": "floatBufferViews",
      "target": 34962
    },
    {
      "buffer": 0,
      "byteLength": 30288,
      "byteOffset": 29776,
      "byteStride": 12,
      "name": "floatBufferViews",
      "target": 34962
    }
  ],
  "buffers": [
    {
      "byteLength": 60064,
      "uri": "scene.bin"
    }
  ],
  "materials": [
    {
      "doubleSided": true,
      "name": "blinn6",
      "pbrMetallicRoughness": {
        "baseColorFactor": [
          0.0,
          0.0,
          0.0,
          1.0
        ],
        "metallicFactor": 0.0,
        "roughnessFactor": 0.9207483816249483
      }
    }
  ],
  "meshes": [
    {
      "name": "Black_King_blinn6_0",
      "primitives": [
        {
          "attributes": {
            "NORMAL": 1,
            "POSITION": 0,
            "TEXCOORD_0": 2
          },
          "indices": 3,
          "material": 0,
          "mode": 4
        }
      ]
    }
  ],
  "nodes": [
    {
      "children": [
        1
      ],
      "matrix": [
        1.0,
        0.0,
        0.0,
        0.0,
        0.0,
        2.220446049250313e-16,
        -1.0,
        0.0,
        0.0,
        1.0,
        2.220446049250313e-16,
        0.0,
        0.0,
        0.0,
        0.0,
        1.0
      ],
      "name": "Sketchfab_model"
    },
    {
      "children": [
        2
      ],
      "matrix": [
        1.0,
        0.0,
        0.0,
        0.0,
        0.0,
        0.0,
        1.0,
        0.0,
        0.0,
        -1.0,
        0.0,
        0.0,
        0.0,
        0.0,
        0.0,
        1.0
      ],
      "name": "2fa936242413449585bc653dc28b67d7.fbx"
    },
    {
      "children": [
        3
      ],
      "name": "RootNode"
    },
    {
      "children": [
        4
      ],
      "matrix": [
        1.561363935470581,
        0.0,
        0.0,
        0.0,
        0.0,
        1.561363935470581,
        0.0,
        0.0,
        0.0,
        0.0,
        1.561363935470581,
        0.0,
        5.299554824829102,
        1.192281723022461,
        -4.700190544128418,
        1.0
      ],
      "name": "Black_King"
    },
    {
      "mesh": 0,
      "name": "Black_King_blinn6_0"
    }
  ],
  "scene": 0,
  "scenes": [
    {
      "name": "Sketchfab_Scene",
      "nodes": [
        0
      ]
    }
  ]
}
