{
  "accessors": [
    {
      "bufferView": 1,
      "componentType": 5126,
      "count": 256,
      "max": [
        43.35430145263672,
        39.464298248291016,
        168.74119567871094
      ],
      "min": [
        -59.07529830932617,
        -65.17880249023438,
        92.37100219726563
      ],
      "type": "VEC3"
    },
    {
      "bufferView": 1,
      "byteOffset": 3072,
      "componentType": 5126,
      "count": 256,
      "max": [
        0.9936292767524719,
        0.9977694153785706,
        0.9906938672065735
      ],
      "min": [
        -0.9989988207817078,
        -0.9931708574295044,
        -0.9981517791748047
      ],
      "type": "VEC3"
    },
    {
      "bufferView": 0,
      "componentType": 5125,
      "count": 1524,
      "type": "SCALAR"
    },
    {
      "bufferView": 1,
      "byteOffset": 6144,
      "componentType": 5126,
      "count": 103,
      "max": [
        11.857799530029297,
        3.49780011177063,
        118.90540313720703
      ],
      "min": [
        -20.899200439453125,
        -30.347000122070313,
        0.0
      ],
      "type": "VEC3"
    },
    {
      "bufferView": 1,
      "byteOffset": 7380,
      "componentType": 5126,
      "count": 103,
      "max": [
        0.9904031157493591,
        0.9965663552284241,
        1.0
      ],
      "min": [
        -0.9964211583137512,
        -0.9987583160400391,
        -1.0
      ],
      "type": "VEC3"
    },
    {
      "bufferView": 0,
      "byteOffset": 6096,
      "componentType": 5125,
      "count": 606,
      "type": "SCALAR"
    }
  ],
  "asset": {
    "extras": {
      "author": "Mahli (https://sketchfab.com/Mahli)",
      "license": "CC-BY-4.0 (http://creativecommons.org/licenses/by/4.0/)",
      "source": "https://sketchfab.com/3d-models/lowpoly-tree-bb5caf186fc546579cce6f3ea676aa86",
      "title": "Lowpoly Tree"
    },
    "generator": "Sketchfab-12.67.0",
    "version": "2.0"
  },
  "bufferViews": [
    {
      "buffer": 0,
      "byteLength": 8520,
      "name": "floatBufferViews",
      "target": 34963
    },
    {
      "buffer": 0,
      "byteLength": 8616,
      "byteOffset": 8520,
      "byteStride": 12,
      "name": "floatBufferViews",
      "target": 34962
    }
  ],
  "buffers": [
    {
      "byteLength": 17136,
      "uri": "scene.bin"
    }
  ],
  "materials": [
    {
      "doubleSided": true,
      "name": "02___Default",
      "pbrMetallicRoughness": {
        "baseColorFactor": [
          0.1294,
          0.8824,
          0.1804,
          1.0
        ],
        "metallicFactor": 0.0
      }
    },
    {
      "doubleSided": true,
      "name": "07___Default",
      "pbrMetallicRoughness": {
        "baseColorFactor": [
          0.251,
          0.1412,
          0.0471,
          1.0
        ],
        "metallicFactor": 0.0
      }
    }
  ],
  "meshes": [
    {
      "name": "Object_0",
      "primitives": [
        {
          "attributes": {
            "NORMAL": 1,
            "POSITION": 0
          },
          "indices": 2,
          "material": 0,
          "mode": 4
        }
      ]
    },
    {
      "name": "Object_1",
      "primitives": [
        {
          "attributes": {
            "NORMAL": 4,
            "POSITION": 3
          },
          "indices": 5,
          "material": 1,
          "mode": 4
        }
      ]
    }
  ],
  "nodes": [
    {
      "children": [
        1
      ],
      "matrix": [
        1.0,
        0.0,
        0.0,
        0.0,
        0.0,
        2.220446049250313e-16,
        -1.0,
        0.0,
        0.0,
        1.0,
        2.220446049250313e-16,
        0.0,
        0.0,
        0.0,
        0.0,
        1.0
      ],
      "name": "Sketchfab_model"
    },
    {
      "children": [
        2,
        3
      ],
      "name": "Lowpoly_Tree.obj.cleaner.materialmerger.gles"
    },
    {
      "mesh": 0,
      "name": "Object_2"
    },
    {
      "mesh": 1,
      "name": "Object_3"
    }
  ],
  "scene": 0,
  "scenes": [
    {
      "name": "Sketchfab_Scene",
      "nodes": [
        0
      ]
    }
  ]
}
